# xmcd CD database file
#
# Track frame offsets:
#	150
#	13018
#	35166
#	59484
#	89010
#	110470
#	125822
#	147643
#	173213
#	201979
#	228172
#	247212
#	265271
#	286850
#
# Disc length: 4021 seconds
#
# Revision: 0
# Processed by: cddbd v1.5.2PL0 Copyright (c) Steve Scherf et al.
# Submitted via: CDex 1.70beta2
#
DISCID=de0fb30e
DTITLE=青木カレン - THE CLUB JAZZ DIVA
DYEAR=2009
DGENRE=Jazz
TTITLE0=Lullaby of Birdland
TTITLE1=青木カレン Feat. native - Englishman in Newyork
TTITLE2=青木カレン Feat. Indigo Jam Unit - Love for Sale
TTITLE3=青木カレン Feat. Makoto Kuriya - Crazy He Calls Me
TTITLE4=青木カレン Feat. Saigenji - Shining
TTITLE5=Light Me Fire
TTITLE6=青木カレン Feat. JABBERLOOP - Smells Like Teen Spirit
TTITLE7=Wonderful Sound
TTITLE8=青木カレン Feat. quasimode - Last Nine Days
TTITLE9=青木カレン Feat. Nori Shiota - Blue Flower
TTITLE10=La Isla Bonita
TTITLE11=青木カレン Feat. Shima and Shikou DUO - Devil May Care
TTITLE12=Dindi
TTITLE13=青木カレン Feat. Makoto Kuriya - Take The A Train
EXTD=YEAR: 2009
EXTT0=
EXTT1=
EXTT2=
EXTT3=
EXTT4=
EXTT5=
EXTT6=
EXTT7=
EXTT8=
EXTT9=
EXTT10=
EXTT11=
EXTT12=
EXTT13=
PLAYORDER=
